# xmcd
#
# Track frame offsets:
#	150
#	14902
#	27040
#	40355
#	58227
#	70940
#	83462
#	96195
#	113287
#	125692
#	137137
#	157177
#
# Disc length: 2263 seconds
#
# Revision: 1
# Processed by: cddbd v1.5.1PL0 Copyright (c) Steve Scherf et al.
# Submitted via: audiograbber 1.83.01
#
DISCID=a208d50c
DTITLE=Rio - the Voice of Elvis - ... Goes Country
DYEAR=1998
DGENRE=Country
TTITLE0=Queen of Hearts
TTITLE1=Let me be there
TTITLE2=Early morning rain
TTITLE3=Country Roads
TTITLE4=Ring of Fire
TTITLE5=Susan when she tried
TTITLE6=Flaming Star
TTITLE7=If tomorrow never comes
TTITLE8=Peggy Sue
TTITLE9=Sea of Heartbreak
TTITLE10=Please come to Boston
TTITLE11=Burning Love
EXTD=
EXTT0=
EXTT1=
EXTT2=
EXTT3=
EXTT4=
EXTT5=
EXTT6=
EXTT7=
EXTT8=
EXTT9=
EXTT10=
EXTT11=
PLAYORDER=
